<svg width="206" height="41" viewBox="0 0 206 41" fill="none" xmlns="http://www.w3.org/2000/svg">
<g filter="url(#filter0_d_24_13)">
<path d="M16.4646 33H13.3146C12.7146 33 12.4146 32.7167 12.4146 32.15V5.6C12.4146 5.26667 12.248 5.1 11.9146 5.1H5.61465C5.01465 5.1 4.71465 4.81666 4.71465 4.25V1.7C4.71465 1.13333 5.01465 0.85 5.61465 0.85H24.1646C24.7647 0.85 25.0647 1.13333 25.0647 1.7V4.25C25.0647 4.81666 24.7647 5.1 24.1646 5.1H17.8646C17.498 5.1 17.3146 5.26667 17.3146 5.6V32.15C17.3146 32.7167 17.0313 33 16.4646 33ZM37.5343 33H34.0143C32.041 33 30.5077 32.4533 29.4143 31.36C28.3477 30.2667 27.8143 28.7467 27.8143 26.8V18.8C27.8143 16.8267 28.3477 15.3067 29.4143 14.24C30.5077 13.1467 32.041 12.6 34.0143 12.6H37.5343C39.481 12.6 41.001 13.1467 42.0943 14.24C43.2143 15.3067 43.7743 16.8267 43.7743 18.8V26.8C43.7743 28.7467 43.2143 30.2667 42.0943 31.36C41.001 32.4533 39.481 33 37.5343 33ZM34.5743 29.6H37.0143C38.9343 29.6 39.8943 28.6267 39.8943 26.68V18.92C39.8943 16.9733 38.9343 16 37.0143 16H34.5743C33.561 16 32.8277 16.24 32.3743 16.72C31.921 17.1733 31.6943 17.9067 31.6943 18.92V26.68C31.6943 27.6933 31.921 28.44 32.3743 28.92C32.8277 29.3733 33.561 29.6 34.5743 29.6ZM65.5018 33H63.4618C61.5418 33 60.0618 32.4667 59.0218 31.4C58.0085 30.3067 57.5018 28.7733 57.5018 26.8V18.8C57.5018 16.8 58.0085 15.2667 59.0218 14.2C60.0618 13.1333 61.5418 12.6 63.4618 12.6H65.5018C67.5552 12.6 68.8885 13.3067 69.5018 14.72H69.6618V5.56C69.6618 5.10667 69.8885 4.88 70.3418 4.88H72.9018C73.3552 4.88 73.5818 5.10667 73.5818 5.56V32.32C73.5818 32.7733 73.3552 33 72.9018 33H70.3418C69.8885 33 69.6618 32.7733 69.6618 32.32V30.88H69.5018C68.8885 32.2933 67.5552 33 65.5018 33ZM69.6618 26.2V19.4C69.6618 17.1333 68.5685 16 66.3818 16H64.2618C62.3418 16 61.3818 16.9867 61.3818 18.96V26.64C61.3818 28.6133 62.3418 29.6 64.2618 29.6H66.3818C68.5685 29.6 69.6618 28.4667 69.6618 26.2ZM87.925 33H84.405C82.4316 33 80.8983 32.4533 79.805 31.36C78.7383 30.2667 78.205 28.7467 78.205 26.8V18.8C78.205 16.8267 78.7383 15.3067 79.805 14.24C80.8983 13.1467 82.4316 12.6 84.405 12.6H87.925C89.8716 12.6 91.3916 13.1467 92.485 14.24C93.605 15.3067 94.165 16.8267 94.165 18.8V26.8C94.165 28.7467 93.605 30.2667 92.485 31.36C91.3916 32.4533 89.8716 33 87.925 33ZM84.965 29.6H87.405C89.325 29.6 90.285 28.6267 90.285 26.68V18.92C90.285 16.9733 89.325 16 87.405 16H84.965C83.9516 16 83.2183 16.24 82.765 16.72C82.3116 17.1733 82.085 17.9067 82.085 18.92V26.68C82.085 27.6933 82.3116 28.44 82.765 28.92C83.2183 29.3733 83.9516 29.6 84.965 29.6ZM113.422 33H110.272C109.706 33 109.422 32.7167 109.422 32.15V1.7C109.422 1.13333 109.706 0.85 110.272 0.85H122.172C124.606 0.85 126.506 1.53333 127.872 2.9C129.239 4.23333 129.922 6.13333 129.922 8.6V13.8C129.922 16.2333 129.239 18.1333 127.872 19.5C126.506 20.8667 124.606 21.55 122.172 21.55H114.872C114.472 21.55 114.272 21.7167 114.272 22.05V32.15C114.272 32.7167 113.989 33 113.422 33ZM114.822 17.25H121.472C123.839 17.25 125.022 16.0167 125.022 13.55V8.8C125.022 6.33333 123.839 5.1 121.472 5.1H114.822C114.456 5.1 114.272 5.26667 114.272 5.6V16.75C114.272 17.0833 114.456 17.25 114.822 17.25ZM144.028 33H140.508C138.535 33 137.002 32.4533 135.908 31.36C134.842 30.2667 134.308 28.7467 134.308 26.8V18.8C134.308 16.8267 134.842 15.3067 135.908 14.24C137.002 13.1467 138.535 12.6 140.508 12.6H144.028C145.975 12.6 147.495 13.1467 148.588 14.24C149.708 15.3067 150.268 16.8267 150.268 18.8V26.8C150.268 28.7467 149.708 30.2667 148.588 31.36C147.495 32.4533 145.975 33 144.028 33ZM141.068 29.6H143.508C145.428 29.6 146.388 28.6267 146.388 26.68V18.92C146.388 16.9733 145.428 16 143.508 16H141.068C140.055 16 139.322 16.24 138.868 16.72C138.415 17.1733 138.188 17.9067 138.188 18.92V26.68C138.188 27.6933 138.415 28.44 138.868 28.92C139.322 29.3733 140.055 29.6 141.068 29.6ZM158.065 33H155.545C155.091 33 154.865 32.7733 154.865 32.32V13.28C154.865 12.8267 155.091 12.6 155.545 12.6H158.065C158.518 12.6 158.745 12.8267 158.745 13.28V14.72H158.905C159.678 13.3067 161.091 12.6 163.145 12.6H164.465C166.785 12.6 168.438 13.48 169.425 15.24C169.851 14.3867 170.505 13.7333 171.385 13.28C172.265 12.8267 173.211 12.6 174.225 12.6H175.505C177.451 12.6 178.931 13.1467 179.945 14.24C180.985 15.3067 181.505 16.8267 181.505 18.8V32.32C181.505 32.7733 181.278 33 180.825 33H178.265C177.811 33 177.585 32.7733 177.585 32.32V18.96C177.585 16.9867 176.625 16 174.705 16H173.545C171.331 16 170.225 17.16 170.225 19.48V32.32C170.225 32.7733 169.985 33 169.505 33H166.985C166.531 33 166.305 32.7733 166.305 32.32V18.96C166.305 16.9867 165.345 16 163.425 16H162.025C159.838 16 158.745 17.1333 158.745 19.4V32.32C158.745 32.7733 158.518 33 158.065 33ZM195.669 33H192.149C190.176 33 188.642 32.4533 187.549 31.36C186.482 30.2667 185.949 28.7467 185.949 26.8V18.8C185.949 16.8267 186.482 15.3067 187.549 14.24C188.642 13.1467 190.176 12.6 192.149 12.6H195.669C197.616 12.6 199.136 13.1467 200.229 14.24C201.349 15.3067 201.909 16.8267 201.909 18.8V26.8C201.909 28.7467 201.349 30.2667 200.229 31.36C199.136 32.4533 197.616 33 195.669 33ZM192.709 29.6H195.149C197.069 29.6 198.029 28.6267 198.029 26.68V18.92C198.029 16.9733 197.069 16 195.149 16H192.709C191.696 16 190.962 16.24 190.509 16.72C190.056 17.1733 189.829 17.9067 189.829 18.92V26.68C189.829 27.6933 190.056 28.44 190.509 28.92C190.962 29.3733 191.696 29.6 192.709 29.6Z" fill="#5965E0"/>
</g>
<defs>
<filter id="filter0_d_24_13" x="0.714645" y="0.850006" width="205.194" height="40.15" filterUnits="userSpaceOnUse" color-interpolation-filters="sRGB">
<feFlood flood-opacity="0" result="BackgroundImageFix"/>
<feColorMatrix in="SourceAlpha" type="matrix" values="0 0 0 0 0 0 0 0 0 0 0 0 0 0 0 0 0 0 127 0" result="hardAlpha"/>
<feOffset dy="4"/>
<feGaussianBlur stdDeviation="2"/>
<feComposite in2="hardAlpha" operator="out"/>
<feColorMatrix type="matrix" values="0 0 0 0 0 0 0 0 0 0 0 0 0 0 0 0 0 0 0.25 0"/>
<feBlend mode="normal" in2="BackgroundImageFix" result="effect1_dropShadow_24_13"/>
<feBlend mode="normal" in="SourceGraphic" in2="effect1_dropShadow_24_13" result="shape"/>
</filter>
</defs>
</svg>
