<svg width="84" height="80" viewBox="0 0 84 80" fill="none" xmlns="http://www.w3.org/2000/svg">
<rect width="80" height="80" rx="40" fill="#5965E0" fill-opacity="0.37"/>
<path d="M30.4021 55H27.2521C26.6521 55 26.3521 54.7167 26.3521 54.15V27.6C26.3521 27.2667 26.1855 27.1 25.8521 27.1H19.5521C18.9521 27.1 18.6521 26.8167 18.6521 26.25V23.7C18.6521 23.1333 18.9521 22.85 19.5521 22.85H38.1021C38.7022 22.85 39.0022 23.1333 39.0022 23.7V26.25C39.0022 26.8167 38.7022 27.1 38.1021 27.1H31.8021C31.4355 27.1 31.2521 27.2667 31.2521 27.6V54.15C31.2521 54.7167 30.9688 55 30.4021 55ZM47.2818 55H44.1318C43.5652 55 43.2818 54.7167 43.2818 54.15V23.7C43.2818 23.1333 43.5652 22.85 44.1318 22.85H56.0318C58.4652 22.85 60.3652 23.5333 61.7318 24.9C63.0985 26.2333 63.7818 28.1333 63.7818 30.6V35.8C63.7818 38.2333 63.0985 40.1333 61.7318 41.5C60.3652 42.8667 58.4652 43.55 56.0318 43.55H48.7318C48.3318 43.55 48.1318 43.7167 48.1318 44.05V54.15C48.1318 54.7167 47.8485 55 47.2818 55ZM48.6818 39.25H55.3318C57.6985 39.25 58.8818 38.0167 58.8818 35.55V30.8C58.8818 28.3333 57.6985 27.1 55.3318 27.1H48.6818C48.3152 27.1 48.1318 27.2667 48.1318 27.6V38.75C48.1318 39.0833 48.3152 39.25 48.6818 39.25Z" fill="#5965E0"/>
</svg>
